<?xml version="1.0" standalone="no"?>
<!DOCTYPE svg PUBLIC "-//W3C//DTD SVG 20010904//EN"
 "http://www.w3.org/TR/2001/REC-SVG-20010904/DTD/svg10.dtd">
<svg version="1.0" xmlns="http://www.w3.org/2000/svg"
 width="256.000000pt" height="256.000000pt" viewBox="0 0 256.000000 256.000000"
 preserveAspectRatio="xMidYMid meet">

<g transform="translate(0.000000,256.000000) scale(0.100000,-0.100000)"
fill="#000000" stroke="none">
<path d="M890 2280 c-104 -51 -221 -122 -252 -154 -14 -13 -18 -34 -18 -87 l0
-69 193 2 192 3 3 178 c1 97 -1 177 -6 177 -5 0 -55 -23 -112 -50z"/>
<path d="M1550 2151 l0 -181 190 0 190 0 0 78 0 78 -77 51 c-76 49 -235 133
-280 147 l-23 7 0 -180z"/>
<path d="M1105 2295 c-22 -8 -41 -15 -42 -15 -2 0 -3 -70 -3 -155 l0 -155 215
0 215 0 0 155 c0 150 -1 155 -22 167 -36 19 -313 22 -363 3z m233 -204 c5 -30
-15 -51 -47 -51 -36 0 -64 22 -59 45 8 46 100 51 106 6z"/>
<path d="M1990 2017 l0 -47 40 0 c36 0 40 2 31 18 -5 9 -23 30 -40 46 l-31 30
0 -47z"/>
<path d="M522 2017 c-18 -18 -32 -36 -32 -40 0 -4 18 -7 40 -7 l40 0 0 40 c0
22 -4 40 -8 40 -4 0 -22 -15 -40 -33z"/>
<path d="M418 1888 c-99 -136 -141 -243 -122 -315 6 -22 10 -23 134 -23 l127
0 7 38 c3 20 6 103 6 185 l0 147 -64 0 c-60 0 -65 -2 -88 -32z"/>
<path d="M1257 1912 l-197 -2 2 -178 3 -177 210 0 210 0 3 172 c2 157 1 173
-15 180 -10 4 -107 7 -216 5z m77 -208 c21 -8 20 -43 -1 -66 -18 -20 -73 -24
-91 -6 -13 13 -16 60 -5 71 8 9 76 9 97 1z"/>
<path d="M1733 1912 l-183 -2 0 -180 0 -180 193 2 192 3 3 176 c2 136 0 178
-10 180 -7 2 -95 3 -195 1z m77 -216 c37 -46 -32 -96 -85 -62 -27 18 -32 45
-13 64 17 17 83 15 98 -2z"/>
<path d="M1992 1738 l3 -183 126 -3 126 -3 11 26 c28 61 1 144 -86 270 l-52
75 -65 0 -65 0 2 -182z"/>
<path d="M620 1730 l0 -180 193 2 192 3 0 175 0 175 -192 3 -193 2 0 -180z
m228 -26 c53 -37 -2 -104 -63 -76 -33 15 -35 64 -2 80 31 15 39 14 65 -4z"/>
<path d="M296 1466 c-41 -43 -56 -95 -56 -192 1 -83 16 -142 46 -175 15 -17
31 -19 146 -19 l128 0 0 210 0 210 -116 0 -117 0 -31 -34z"/>
<path d="M620 1290 l0 -210 190 0 190 0 1 68 c1 37 2 130 3 207 l1 140 -192 3
-193 2 0 -210z m241 -31 c27 -27 21 -61 -12 -73 -37 -13 -78 0 -91 29 -24 53
58 89 103 44z"/>
<path d="M1067 1493 c-4 -3 -7 -98 -7 -210 l0 -203 210 0 210 0 0 210 0 210
-203 0 c-112 0 -207 -3 -210 -7z m265 -230 c22 -20 23 -41 1 -65 -20 -22 -70
-23 -95 -1 -20 18 -23 36 -8 64 14 24 76 26 102 2z"/>
<path d="M1550 1290 l0 -210 195 0 195 0 -2 208 -3 207 -192 3 -193 2 0 -210z
m254 -26 c19 -18 21 -55 4 -72 -17 -17 -68 -15 -90 5 -21 18 -24 53 -6 71 17
17 74 15 92 -4z"/>
<path d="M1997 1493 c-4 -3 -7 -98 -7 -210 l0 -203 140 0 141 0 22 48 c18 39
21 65 22 157 0 95 -3 116 -23 152 -12 23 -31 47 -41 53 -21 11 -244 14 -254 3z"/>
<path d="M301 1011 c-7 -5 -16 -29 -18 -54 -5 -40 0 -58 36 -129 22 -46 58
-105 79 -133 l38 -50 67 -3 67 -3 0 191 0 190 -127 0 c-71 0 -134 -4 -142 -9z"/>
<path d="M628 1013 c-2 -5 -2 -90 0 -190 l3 -183 190 0 190 0 -3 188 -3 187
-187 3 c-103 1 -188 -1 -190 -5z m238 -234 c20 -17 17 -57 -5 -69 -31 -16 -58
-12 -87 14 -28 23 -28 24 -10 51 16 24 23 27 53 22 19 -3 41 -11 49 -18z"/>
<path d="M1060 830 l0 -190 210 0 210 0 0 190 0 190 -210 0 -210 0 0 -190z
m270 -40 c24 -24 25 -32 2 -59 -20 -25 -73 -31 -97 -11 -21 17 -19 67 3 79 28
17 71 12 92 -9z"/>
<path d="M1550 832 l0 -189 183 -5 c100 -3 185 -3 189 1 4 4 9 90 10 191 l3
185 -192 3 -193 2 0 -188z m253 -50 c22 -20 22 -37 -3 -62 -27 -27 -62 -25
-89 4 -28 29 -24 56 9 73 28 14 56 9 83 -15z"/>
<path d="M1997 1013 c-4 -3 -7 -91 -7 -195 l0 -188 63 0 63 0 36 48 c76 102
129 217 130 280 0 58 -10 62 -152 62 -69 0 -130 -3 -133 -7z"/>
<path d="M757 582 l-128 -3 3 -77 3 -77 79 -52 c43 -29 113 -66 155 -83 42
-17 90 -38 106 -45 17 -8 32 -11 35 -7 3 4 3 84 0 177 l-5 170 -60 0 c-33 0
-118 -1 -188 -3z"/>
<path d="M1069 586 c-2 -2 -3 -78 -1 -169 3 -160 4 -165 25 -171 38 -11 280
-19 340 -12 l57 7 0 62 c0 34 -3 113 -7 175 l-6 112 -202 0 c-111 0 -204 -2
-206 -4z m262 -206 c10 -6 19 -19 19 -30 0 -24 -29 -40 -72 -40 -38 0 -58 15
-58 42 0 33 68 50 111 28z"/>
<path d="M1550 427 c0 -123 -3 -167 -12 -170 -9 -3 -7 -7 5 -12 34 -14 236 77
340 154 l47 35 0 73 0 73 -122 0 c-68 0 -153 3 -190 7 l-68 6 0 -166z"/>
<path d="M526 535 c20 -25 38 -45 40 -45 2 0 4 20 4 45 l0 45 -41 0 -40 0 37
-45z"/>
<path d="M1990 538 l0 -42 40 39 c22 21 40 40 40 42 0 2 -18 3 -40 3 l-40 0 0
-42z"/>
</g>
</svg>
